<svg xmlns="http://www.w3.org/2000/svg" width="1105.8818" height="441.29877">
  <defs>
    <linearGradient id="g" gradientTransform="rotate(-15)">
      <stop stop-color="#8c0000" offset="0"/>
      <stop offset=".78" stop-color="red"/>
      <stop stop-color="#fee" offset="0.95"/>
    </linearGradient>
  </defs>
  <g transform="translate(250.084, -263.141)">
	<path fill="#fff" d="m240,300v360h580v-360z" />
    <path fill="url(#g)" stroke="#fff" stroke-width="2" d="m 452.41622,703.51783c-23.375,-0.41477 -51.05,-1.0617 -61.5,-1.43764 -70.1662,-2.52423 -118.33966,-5.22235 -127.96482,-7.16713C249.2318,692.141 233.9,682.85722 225.00161,671.93351 210.7402,654.42613 203.14528,633.1845 199.45631,600.4878c-8.57642,-76.01577 -8.38617,-164.64323 0.5109,-238 3.89651,-32.12699 13.59078,-55.35269 29.86324,-71.54688 9.28656,-9.2419 18.20859,-14.41545 30.10896,-17.45905 25.74806,-6.58525 227.35062,-11.82967 349.97681,-9.10418 70.8297,1.57426 147.3687,4.8378 167.7116,7.15104 26.3086,2.99162 44.7809,16.6166 57.5644,42.45907 9.652,19.5121 12.7568,34.69945 16.6611,81.5 3.0932,37.07869 3.828,60.16179 3.277,102.94182 -0.6594,51.20056 -3.9152,96.29636 -8.7805,121.61981 -5.1419,26.76314 -17.3134,49.58525 -33.0302,61.93308 -12.1447,9.54142 -25.0758,13.79808 -45.4034,14.9459 -6.05,0.34162 -13.7,0.82983 -17,1.08492 -11.7385,0.90736 -74.5468,3.45472 -109,4.42078 -51.20786,1.43586 -140.78403,1.94813 -189.5,1.08372zm -15.28204,-87.19746c7.19771,-2.69301 15.63053,-8.53845 22.75074,-15.77029 3.28278,-3.33425 6.54528,-6.06228 7.25,-6.06228 0.96408,0 1.2813,2.72334 1.2813,11l0,11 18,0 18,0 0,-104.5 0,-104.5 -18,0 -18,0 0,80.62121 0,80.62121 -7.75,7.70377c-6.1527,6.11598 -8.73434,7.97422 -12.52593,9.01601 -6.44502,1.77084 -10.525,0.53665 -13.183,-3.98785 -2.00562,-3.41401 -2.04579,-4.95503 -2.31285,-88.72435l-0.27178,-85.25 -17.97822,0 -17.97822,0 0,90.54216c0,98.58687 0.10911,100.72337 5.62963,110.23023 6.03053,10.38516 20.18439,13.63646 35.08833,8.06018zm 191.63388,0.92689c5.79395,-1.71037 12.87142,-8.63726 16.04076,-15.6995 6.08602,-13.56144 6.1074,-13.87675 6.1074,-90.05996 0,-62.54223 -0.17446,-70.25084 -1.74261,-77 -5.0275,-21.63783 -15.9846,-31.10342 -34.39288,-29.71121 -10.32285,0.78072 -18.44643,4.9011 -28.17726,14.29187 -4.22799,4.08023 -8.02475,7.41876 -8.43725,7.41897 -0.4125,2e-4 -0.75,-20.69963 -0.75,-45.99963l0,-46 -18,0 -18,0 0,141 0,141 18,0 18,0 0,-9.5c0,-6.2965 0.37445,-9.5 1.11043,-9.5 0.61074,0 4.66523,3.3441 9.00999,7.43134 14.0005,13.17066 26.11091,16.79165 41.23142,12.32812zm -23.24972,-36.0326c2.37244,-1.58714 3.91866,-3.7751 5.12354,-7.25 1.5691,-4.52534 1.70519,-10.32959 1.5,-63.97686 -0.21387,-55.91675 -0.32599,-59.20214 -2.14562,-62.86806 -4.64666,-9.36138 -16.34373,-10.25312 -27.07965,-2.06444l-3.50039,2.66988 0,63.76262 0,63.76262 3.49235,2.66375c7.92264,6.04289 16.61395,7.31161 22.60977,3.30049zm 151.89788,35.62221c19.2619,-5.39053 32.5663,-18.52152 37.5719,-37.08227 0.8554,-3.17174 1.8178,-12.1793 2.1386,-20.0168l0.5833,-14.25 -18.5287,0 -18.5286,0 -0.457,12.75c-0.5205,14.52041 -2.0288,19.50567 -7.3021,24.13571 -5.6277,4.94117 -15.9632,5.28316 -22.6889,0.75076 -7.9957,-5.38829 -9.9742,-14.51039 -9.5729,-44.13647l0.2844,-21 38.3708,-0.262 38.3707,-0.26199 -0.5271,-31.23801c-0.588,-34.84458 -1.3143,-40.15155 -7.187,-52.51779 -11.1419,-23.46169 -42.0783,-35.29992 -67.769,-25.93266 -19.3908,7.07025 -30.8295,19.81729 -35.4495,39.50431 -1.6329,6.95818 -1.8089,13.20528 -1.8089,64.20814 0,62.55344 0.2171,65.11083 6.6129,77.9101 11.3952,22.80364 39.9531,34.69673 65.8871,27.43897zm -36.665,-130.91854c-0.9277,-2.41752 0.3689,-30.46891 1.5969,-34.54816 2.8854,-9.58494 8.997,-14.25737 18.649,-14.25737 8.0345,0 13.1163,3.08909 16.548,10.05902 2.1751,4.41786 2.3985,6.28329 2.7021,22.56598l0.331,17.75 -19.6124,0c-16.8965,0 -19.6958,-0.21733 -20.2146,-1.56947zm -379.335,8.56947 0.5,-121.5 22.772,-0.26883 22.77199,-0.26883 -0.27199,-18.73117 -0.272,-18.73117 -65.75,-0.25719 -65.75,-0.25719 0,18.98806 0,18.98806 22.25,0.26913 22.25,0.26913 0.24702,120.5c0.13586,66.275 0.4629,121.07205 0.72676,121.77122 0.37062,0.98209 4.97699,1.20953 20.25298,1l19.77324,-0.27122 0.5,-121.5zM -51.083778,622.70923c-22.93703,-2.68256 -41.89954,-18.23216 -47.82993,-39.22143 -3.391582,-12.00371 -3.831692,-21.76835 -3.431022,-76.12449 0.37298,-50.60085 0.50341,-53.77285 2.509052,-61.01904 6.22156,-22.47792 21.16694,-36.75323 43.44327,-41.49551 25.16472,-5.35717 52.7335996,7.865 62.8414196,30.13904 6.0642804,13.36354 6.2415404,15.25564 6.6985404,71.5 0.45445,55.93039 -0.11371,66.19586 -4.3723304,79 -3.16366,9.51196 -7.04025,15.56406 -14.23425,22.22241 -6.7720196,6.26777 -15.3655796,11.04028 -23.6247496,13.12019 -6.25952,1.57634 -16.85177,2.48093 -22,1.87883zm 15.32449,-39.89633c3.61761,-2.64227 6.09248,-7.94069 7.28404,-15.59429 0.5925,-3.80576 0.87082,-27.47136 0.69153,-58.80001l-0.30006,-52.4308 -2.36995,-5.24257c-3.92899,-8.69133 -12.16121,-12.10663 -20.39869,-8.46279 -3.75755,1.66214 -4.93413,2.91708 -7.35239,7.84208l-2.87897,5.86328 0,56.5c0,59.56965 0.0737,60.6427 4.60699,67.10969 4.14672,5.91548 14.76455,7.5634 20.7175,3.21541zm 100.21667,39.525c-8.26201,-1.35271 -13.72762,-5.36246 -17.51577,-12.8501 -4.99368,-9.87051 -5.0172,-10.29112 -5.14562,-92 -0.0661,-42.075 0.10637,-84.2625 0.38333,-93.75l0.50356,-17.25 19.86667,0 19.86667,0 0.0723,9.25c0.0398,5.0875 0.22854,43.7398 0.41951,85.89401 0.30728,67.82894 0.53109,76.99957 1.9459,79.73551 3.58811,6.93865 11.97101,5.0237 21.796908,-4.97918l6.75362,-6.87527 0.25589,-81.26254 0.25587,-81.26253 20.25453,-0.27072 20.25452,-0.27072 -0.25452,106.77072 -0.25453,106.77072 -18.5,0.0821c-10.175,0.0452 -19.2875,-0.0977 -20.25,-0.31738 -1.51726,-0.34639 -1.75,-1.67511 -1.75,-9.99065l0,-9.59111 -6.31265,6.06171c-13.955778,13.40104 -27.627838,18.56431 -42.646188,16.1054l0,3e-5zm 15.95884,-213.8501 0,0zM -196.79333,618.09626c-0.69988,-1.30775 -0.79326,-16.81331 -0.28919,-48.01993 0.97119,-60.12585 0.96511,-61.06574 -0.44099,-68.08853 -1.73489,-8.665 -5.54752,-21.0645 -11.2231,-36.5 -5.45217,-14.8279 -40.83717,-127.01182 -40.83717,-129.46937 0,-1.33075 3.0688,-1.53063 23.5,-1.53063 12.925,0 23.5,0.20557 23.5,0.45683 0,0.41746 27.63454,102.85873 28.31187,104.95212 0.16175,0.49992 5.82333,-20.42508 12.58128,-46.5 6.75796,-26.07492 12.99539,-49.99645 13.86097,-53.15895l1.57378,-5.75 22.33605,0c21.76312,0 22.33605,0.052 22.33605,2.0255 0,1.11403 -3.1139,12.25153 -6.91977,24.75 -3.80588,12.49848 -15.05588,49.77485 -25,82.8364l-18.08023,60.11189 0,57.63811c0,45.37927 -0.26586,57.66384 -1.25,57.75912 -0.6875,0.0666 -10.62708,0.18803 -22.08795,0.26993 -19.65027,0.14042 -20.89686,0.0388 -21.8716,-1.78249 z"/>
    <path d="m -51.083778,623.14001c-18.13302,-2.20203 -34.78911,-12.87107 -42.81444,-27.42471 -8.181612,-14.83705 -8.928042,-22.60799 -8.446512,-87.93466 0.37298,-50.60085 0.50341,-53.77285 2.50905,-61.01904 4.780852,-17.27278 14.037832,-29.05362 28.408992,-36.15456 19.72307,-9.74535 40.97911,-8.47345 59.58966,3.56564 11.8472502,7.66395 19.0470102,18.74639 22.88893,35.23245 1.70166,7.30202 1.86432,12.88589 1.86432,64 0,62.13567 -0.30215,65.7264 -6.6636298,79.1905 -6.129,12.97204 -19.9870502,24.40151 -34.4486002,28.41158 -6.364,1.76468 -17.42866,2.79575 -22.88777,2.1328zm 15.89004,-40.58321c6.94577,-5.2978 6.99475,-5.73321 7.37969,-65.59803 0.29896,-46.49398 0.13262,-54.39497 -1.27875,-60.73879 -1.90178,-8.54813 -5.23777,-12.63104 -11.75399,-14.38567 -8.43777,-2.27206 -16.16723,2.55716 -18.84369,11.77317 -2.06163,7.09896 -2.04028,112.56846 0.0242,119.68185 1.54549,5.32509 6.5687,11.16055 10.29078,11.95479 4.83713,1.03217 10.78217,-0.0944 14.18172,-2.68732l4e-5,0zm 102.109964,40.62657c-10.05339,-1.33855 -15.92063,-5.21769 -19.9473,-13.18822 -5.0554,-10.00682 -5.0527,-9.94823 -5.0527,-109.59002l0,-92.99999 20.27751,0 20.27749,0 0.42841,85.7144c0.46543,93.12025 0.32656,90.94684 5.90048,92.34581 5.1182,1.28458 10.77679,-1.45855 17.838834,-8.64779l6.7655,-6.88736 0.25589,-81.26254 0.25588,-81.26252 20.25,-0.27072 20.25,-0.27069 0,106.44124 0,106.44125 -2.75,0.56484c-3.31773,0.68144 -34.02594,0.63705 -36.5,-0.0528 -1.51208,-0.4216 -1.75,-1.80007 -1.75,-10.13924l0,-9.65131 -5.75,5.59835c-13.231134,12.88219 -27.509994,18.88011 -40.749994,17.11728l0,3e-5zM -196.2075,619.70494c-0.85057,-1.37626 -0.723,-83.64703 0.14777,-95.29981 1.11659,-14.94216 -1.39298,-26.68985 -12.11942,-56.73291 -3.48219,-9.7531 -9.76444,-28.6531 -13.96054,-42 -30.31305,-96.41932 -28.70374,-90.75827 -25.80759,-90.783 19.96744,-0.17045 44.62943,-0.0515 44.89748,0.21656 0.19218,0.19218 6.68395,23.73816 14.42614,52.32439 7.74219,28.58623 14.20409,52.38195 14.35978,52.87938 0.15568,0.49744 4.70032,-16.15255 10.0992,-36.99999 11.3176,-43.70227 17.66811,-67.83118 17.91103,-68.05344 0.50626,-0.46321 6.13548,-0.57018 24.52928,-0.46614l20.3594,0.11515 -0.44831,3.25c-0.36652,2.65701 -14.25823,49.31457 -28.80612,96.75 -1.60245,5.225 -5.65384,18.725 -9.00308,30 -3.34925,11.275 -7.41069,24.66788 -9.02542,29.76196l-2.93588,9.26196 0,57.92065c0,54.31348 -0.10899,57.95047 -1.75,58.39942 -3.64979,0.9985 -42.22287,0.50891 -42.87372,-0.54418 z"/>
  </g>
</svg>